<?xml version="1.0" encoding="UTF-8" standalone="no"?>
<!-- Created with Inkscape (http://www.inkscape.org/) -->

<svg
   xmlns:dc="http://purl.org/dc/elements/1.1/"
   xmlns:cc="http://creativecommons.org/ns#"
   xmlns:rdf="http://www.w3.org/1999/02/22-rdf-syntax-ns#"
   xmlns:svg="http://www.w3.org/2000/svg"
   xmlns="http://www.w3.org/2000/svg"
   xmlns:xlink="http://www.w3.org/1999/xlink"
   xmlns:sodipodi="http://sodipodi.sourceforge.net/DTD/sodipodi-0.dtd"
   xmlns:inkscape="http://www.inkscape.org/namespaces/inkscape"
   width="200"
   height="200"
   id="svg2"
   version="1.1"
   inkscape:version="0.48.2 r9819"
   sodipodi:docname="drawing.svg"
   inkscape:export-filename="/Users/daniel.wood/Sites/climate_frame/img/icons/sun2.png"
   inkscape:export-xdpi="180"
   inkscape:export-ydpi="180">
  <defs
     id="defs4">
    <linearGradient
       id="linearGradient5087">
      <stop
         style="stop-color:#007b86;stop-opacity:1;"
         offset="0"
         id="stop5089" />
      <stop
         id="stop5097"
         offset="0.2904869"
         style="stop-color:#00a3b1;stop-opacity:0.90811968;" />
      <stop
         style="stop-color:#00b7c6;stop-opacity:0.82352941;"
         offset="0.50178635"
         id="stop5099" />
      <stop
         id="stop5095"
         offset="0.70271605"
         style="stop-color:#00ccdc;stop-opacity:0.76923078;" />
      <stop
         style="stop-color:#00ccdc;stop-opacity:0.12179487;"
         offset="1"
         id="stop5091" />
    </linearGradient>
    <linearGradient
       id="linearGradient5030">
      <stop
         style="stop-color:#ffffff;stop-opacity:1;"
         offset="0"
         id="stop5032" />
      <stop
         style="stop-color:#930000;stop-opacity:1;"
         offset="1"
         id="stop5034" />
    </linearGradient>
    <linearGradient
       inkscape:collect="always"
       id="linearGradient5022">
      <stop
         style="stop-color:#646464;stop-opacity:1;"
         offset="0"
         id="stop5024" />
      <stop
         style="stop-color:#646464;stop-opacity:0;"
         offset="1"
         id="stop5026" />
    </linearGradient>
    <linearGradient
       inkscape:collect="always"
       id="linearGradient4955">
      <stop
         style="stop-color:#0069ff;stop-opacity:1;"
         offset="0"
         id="stop4957" />
      <stop
         style="stop-color:#0069ff;stop-opacity:0;"
         offset="1"
         id="stop4959" />
    </linearGradient>
    <linearGradient
       id="linearGradient4445">
      <stop
         style="stop-color:#02b900;stop-opacity:1;"
         offset="0"
         id="stop4447" />
      <stop
         id="stop4449"
         offset="0"
         style="stop-color:#7aaf00;stop-opacity:0.96862745;" />
      <stop
         id="stop4451"
         offset="0.04726101"
         style="stop-color:#f2a500;stop-opacity:0.9372549;" />
      <stop
         id="stop4453"
         offset="0.24812031"
         style="stop-color:#eb9100;stop-opacity:0.8745098;" />
      <stop
         id="stop4455"
         offset="0.5"
         style="stop-color:#dc6a00;stop-opacity:0.74901961;" />
      <stop
         id="stop4457"
         offset="1"
         style="stop-color:#dc6a00;stop-opacity:0.49803922;" />
      <stop
         style="stop-color:#dc6a00;stop-opacity:0;"
         offset="1"
         id="stop4459" />
    </linearGradient>
    <linearGradient
       id="linearGradient4429">
      <stop
         style="stop-color:#facf00;stop-opacity:1;"
         offset="0"
         id="stop4465" />
      <stop
         id="stop4467"
         offset="0.52631581"
         style="stop-color:#ed8c00;stop-opacity:1;" />
      <stop
         id="stop4443"
         offset="1"
         style="stop-color:#dc5500;stop-opacity:1;" />
    </linearGradient>
    <linearGradient
       id="linearGradient4395">
      <stop
         style="stop-color:#02b900;stop-opacity:1;"
         offset="0"
         id="stop4397" />
      <stop
         id="stop4411"
         offset="0"
         style="stop-color:#7aaf00;stop-opacity:0.96862745;" />
      <stop
         id="stop4409"
         offset="0.04726101"
         style="stop-color:#f2a500;stop-opacity:0.9372549;" />
      <stop
         id="stop4407"
         offset="0.24812031"
         style="stop-color:#eb9100;stop-opacity:0.8745098;" />
      <stop
         id="stop4405"
         offset="0.5"
         style="stop-color:#dc6a00;stop-opacity:0.74901961;" />
      <stop
         id="stop4403"
         offset="1"
         style="stop-color:#dc6a00;stop-opacity:0.49803922;" />
      <stop
         style="stop-color:#dc6a00;stop-opacity:0;"
         offset="1"
         id="stop4399" />
    </linearGradient>
    <linearGradient
       inkscape:collect="always"
       xlink:href="#linearGradient4429"
       id="linearGradient4485"
       gradientUnits="userSpaceOnUse"
       spreadMethod="pad"
       x1="402.34671"
       y1="491.36218"
       x2="503.24774"
       y2="365.36218" />
    <clipPath
       clipPathUnits="userSpaceOnUse"
       id="clipPath4848">
      <path
         style="fill:#43311e;fill-opacity:0;stroke:#43311e;stroke-width:10;stroke-linejoin:round;stroke-miterlimit:4;stroke-opacity:1"
         mask="none"
         d="m 296.99999,151.11218 c 0,53.43355 -43.31645,96.75 -96.74999,96.75 -53.43355,0 -96.75,-43.31645 -96.75,-96.75 0,-53.433552 43.31645,-96.750006 96.75,-96.750006 53.43354,0 96.74999,43.316454 96.74999,96.750006 z"
         id="path4850"
         inkscape:connector-curvature="0" />
    </clipPath>
    <linearGradient
       inkscape:collect="always"
       xlink:href="#linearGradient4955"
       id="linearGradient4961"
       x1="141.34726"
       y1="168.4993"
       x2="67.346954"
       y2="10.814474"
       gradientUnits="userSpaceOnUse" />
    <linearGradient
       inkscape:collect="always"
       xlink:href="#linearGradient5022"
       id="linearGradient5028"
       x1="149.49835"
       y1="359.52835"
       x2="288.06085"
       y2="515.52838"
       gradientUnits="userSpaceOnUse" />
    <linearGradient
       inkscape:collect="always"
       xlink:href="#linearGradient5030"
       id="linearGradient5036"
       x1="149.49835"
       y1="359.52835"
       x2="288.06085"
       y2="515.52838"
       gradientUnits="userSpaceOnUse" />
    <linearGradient
       inkscape:collect="always"
       xlink:href="#linearGradient4955"
       id="linearGradient5049"
       gradientUnits="userSpaceOnUse"
       x1="141.34726"
       y1="168.4993"
       x2="67.346954"
       y2="10.814474" />
    <linearGradient
       inkscape:collect="always"
       xlink:href="#linearGradient5030"
       id="linearGradient5059"
       gradientUnits="userSpaceOnUse"
       x1="149.49835"
       y1="359.52835"
       x2="288.06085"
       y2="515.52838" />
    <linearGradient
       inkscape:collect="always"
       xlink:href="#linearGradient5022"
       id="linearGradient5061"
       gradientUnits="userSpaceOnUse"
       x1="149.49835"
       y1="359.52835"
       x2="288.06085"
       y2="515.52838" />
    <linearGradient
       inkscape:collect="always"
       xlink:href="#linearGradient5030"
       id="linearGradient5083"
       gradientUnits="userSpaceOnUse"
       gradientTransform="translate(0,-266)"
       x1="-59.805256"
       y1="144.5679"
       x2="284.52533"
       y2="502.09335" />
    <linearGradient
       inkscape:collect="always"
       xlink:href="#linearGradient5022"
       id="linearGradient5085"
       gradientUnits="userSpaceOnUse"
       gradientTransform="translate(0,-266)"
       x1="-59.805256"
       y1="144.5679"
       x2="284.52533"
       y2="502.09335" />
    <linearGradient
       inkscape:collect="always"
       xlink:href="#linearGradient5087"
       id="linearGradient5093"
       x1="146.55434"
       y1="228.42044"
       x2="276.23386"
       y2="89.827522"
       gradientUnits="userSpaceOnUse"
       gradientTransform="translate(300,0)" />
  </defs>
  <sodipodi:namedview
     id="base"
     pagecolor="#ffffff"
     bordercolor="#666666"
     borderopacity="1.0"
     inkscape:pageopacity="0.0"
     inkscape:pageshadow="2"
     inkscape:zoom="0.35355339"
     inkscape:cx="93.004567"
     inkscape:cy="115.92891"
     inkscape:document-units="px"
     inkscape:current-layer="layer1"
     showgrid="false"
     inkscape:snap-global="false"
     showguides="false"
     inkscape:guide-bbox="true"
     inkscape:window-width="1640"
     inkscape:window-height="993"
     inkscape:window-x="565"
     inkscape:window-y="274"
     inkscape:window-maximized="0"
     fit-margin-top="0"
     fit-margin-left="0"
     fit-margin-right="0"
     fit-margin-bottom="0"
     inkscape:showpageshadow="true"
     showborder="true">
    <inkscape:grid
       type="xygrid"
       id="grid2985"
       empspacing="5"
       visible="true"
       enabled="true"
       snapvisiblegridlinesonly="true" />
    <sodipodi:guide
       orientation="0,1"
       position="-42.717097,201.29118"
       id="guide2989" />
    <sodipodi:guide
       orientation="1,0"
       position="2.2829027,221.29118"
       id="guide2991" />
    <sodipodi:guide
       orientation="0,1"
       position="57.282903,1.2911831"
       id="guide3767" />
    <sodipodi:guide
       orientation="1,0"
       position="262.2829,101.29118"
       id="guide3769" />
    <sodipodi:guide
       orientation="1,0"
       position="462.2829,131.29118"
       id="guide3771" />
    <sodipodi:guide
       orientation="1,0"
       position="202.2829,51.291183"
       id="guide3792" />
    <sodipodi:guide
       orientation="0,1"
       position="72.282903,-58.708817"
       id="guide3794" />
    <sodipodi:guide
       orientation="0,1"
       position="92.282903,-258.70882"
       id="guide3796" />
    <sodipodi:guide
       orientation="0,1"
       position="72.282903,-298.70882"
       id="guide3855" />
    <sodipodi:guide
       orientation="0,1"
       position="112.2829,-498.70882"
       id="guide3857" />
    <sodipodi:guide
       orientation="0,1"
       position="132.2829,-548.70882"
       id="guide4371" />
    <sodipodi:guide
       orientation="0,1"
       position="112.2829,-748.70882"
       id="guide4373" />
    <sodipodi:guide
       orientation="1,0"
       position="357.2829,-108.70882"
       id="guide4479" />
    <sodipodi:guide
       orientation="1,0"
       position="101,60"
       id="guide4491" />
  </sodipodi:namedview>
  <metadata
     id="metadata7">
    <rdf:RDF>
      <cc:Work
         rdf:about="">
        <dc:format>image/svg+xml</dc:format>
        <dc:type
           rdf:resource="http://purl.org/dc/dcmitype/StillImage" />
        <dc:title></dc:title>
      </cc:Work>
    </rdf:RDF>
  </metadata>
  <g
     inkscape:label="Layer 1"
     inkscape:groupmode="layer"
     id="layer1"
     transform="translate(-97.717097,-53.653341)">
    <g
       id="g5079"
       transform="translate(-4,740)">
      <path
         sodipodi:nodetypes="cscsscccccsccsssss"
         id="path4978"
         d="m 291.29522,68.30959 c -0.88649,0.172893 -7.60104,-5.576195 -8.47643,-5.403226 -59.30046,11.717233 -87.38301,29.529467 -106.39857,41.184476 -18.91942,10.51628 -31.65625,30.27407 -31.65625,52.90625 0,19.99945 11.61609,35.802 26.98147,46.91662 3.28099,2.37332 5.13013,6.38878 8.86228,8.11463 -12.53971,9.97252 -66.57739,30.23982 -66.57739,30.23982 l 7.70239,5.72893 c 74.24337,-14.47976 109.46462,-29.20255 125.4375,-43.46875 0.0646,-0.0577 0.12358,-0.12986 0.1875,-0.1875 14.23899,-11.17634 23.34375,-28.21686 23.34375,-47.34375 0,-24.13991 -14.47342,-45.03192 -35.5,-54.90625 12.99973,-10.10028 30.90216,-22.3069 56.09375,-33.78125 z m -86.0625,65.75 c 12.9843,0 23.5,10.0979 23.5,22.5625 0,12.4646 -10.5157,22.5625 -23.5,22.5625 -12.9843,0 -23.53125,-10.0979 -23.53125,-22.5625 0,-12.4646 10.54695,-22.5625 23.53125,-22.5625 z"
         style="fill:#6d0000;fill-opacity:1;stroke:none"
         inkscape:connector-curvature="0" />
      <path
         inkscape:connector-curvature="0"
         style="fill:url(#linearGradient5083);fill-opacity:1;stroke:url(#linearGradient5085);stroke-width:0;stroke-linejoin:round;stroke-miterlimit:4;stroke-opacity:1;stroke-dasharray:none"
         d="m 283.56085,62.68459 c -60.93867,11.88493 -95.57873,23.95419 -114.875,35.78125 -18.91942,10.51628 -31.65625,30.27407 -31.65625,52.90625 0,24.26996 14.63339,45.22298 35.84375,55.03125 -13.1946,10.49334 -31.8325,23.65134 -58.875,35.96875 74.24337,-14.47976 109.46462,-29.20255 125.4375,-43.46875 0.0645,-0.0577 0.12358,-0.12986 0.1875,-0.1875 14.23899,-11.17634 23.34375,-28.21686 23.34375,-47.34375 0,-24.13991 -14.47342,-45.03192 -35.5,-54.90625 12.99973,-10.10028 30.90216,-22.3069 56.09375,-33.78125 z m -86.0625,65.75 c 12.9843,0 23.5,10.0979 23.5,22.5625 0,12.4646 -10.5157,22.5625 -23.5,22.5625 -12.9843,0 -23.53125,-10.0979 -23.53125,-22.5625 0,-12.4646 10.54695,-22.5625 23.53125,-22.5625 z"
         id="path3798" />
    </g>
    <path
       sodipodi:open="true"
       sodipodi:end="8.8949604"
       sodipodi:start="6.2622875"
       transform="matrix(1.013471,0.28444613,-0.28444615,1.0134711,800.64109,344.0816)"
       d="m 559.97926,195.37704 c 1.09636,52.45559 -40.53852,95.86803 -92.99411,96.9644 -34.43142,0.71965 -66.55597,-17.25121 -83.96058,-46.96854"
       sodipodi:ry="95"
       sodipodi:rx="95"
       sodipodi:cy="197.36218"
       sodipodi:cx="465"
       id="path3861"
       style="fill:#d2d2d2;fill-opacity:1;stroke:none"
       sodipodi:type="arc" />
    <path
       sodipodi:type="arc"
       style="fill:#d2d2d2;fill-opacity:1;stroke:none"
       id="path3830"
       sodipodi:cx="465"
       sodipodi:cy="197.36218"
       sodipodi:rx="95"
       sodipodi:ry="95"
       d="m 559.97926,195.37704 c 1.09636,52.45559 -40.53852,95.86803 -92.99411,96.9644 -34.43142,0.71965 -66.55597,-17.25121 -83.96058,-46.96854"
       transform="matrix(1.013471,0.28444613,-0.28444615,1.0134711,800.64109,104.0816)"
       sodipodi:start="6.2622875"
       sodipodi:end="8.8949604"
       sodipodi:open="true" />
    <path
       transform="matrix(1.0526315,0,0,1.0526316,726.52633,228.61252)"
       d="m 560,197.36218 c 0,52.46705 -42.53295,95 -95,95 -52.46705,0 -95,-42.53295 -95,-95 0,-52.46705 42.53295,-95 95,-95 52.46705,0 95,42.53295 95,95 z"
       sodipodi:ry="95"
       sodipodi:rx="95"
       sodipodi:cy="197.36218"
       sodipodi:cx="465"
       id="path3826"
       style="fill:#ffffff;fill-opacity:0;stroke:#000000;stroke-width:4.75;stroke-linejoin:round;stroke-miterlimit:4;stroke-opacity:1;stroke-dasharray:none"
       sodipodi:type="arc" />
    <path
       transform="matrix(0.44401023,0,0,0.44401023,1081.2868,325.70541)"
       d="m 150,142.36218 c -2.23499,0.55875 -14.6697,-11.39692 -16.97157,-11.49048 -2.30188,-0.0935 -15.66581,10.81358 -17.84808,10.07531 -2.18227,-0.73828 -6.17929,-17.51875 -8.06517,-18.84194 -1.88588,-1.32319 -19.025174,0.6274 -20.461876,-1.17351 -1.436701,-1.8009 4.272995,-18.07848 3.401864,-20.2112 C 89.184036,98.587638 73.710979,90.962369 73.475991,88.670612 73.241003,86.378855 86.844628,75.77218 87.264822,73.507052 87.685015,71.241924 78.790783,56.461773 79.832116,54.40678 c 1.041332,-2.054992 18.219832,-3.62322 19.797942,-5.301593 1.578112,-1.678373 2.086562,-18.920813 4.073592,-20.086596 1.98704,-1.165782 17.28636,6.802339 19.52135,6.243592 2.23499,-0.558747 11.98469,-14.789122 14.28656,-14.695567 2.30187,0.09355 10.86459,15.068202 13.04686,15.80648 2.18227,0.738278 18.07777,-5.961989 19.96365,-4.6388 1.88587,1.32319 0.99338,18.550019 2.43008,20.350923 1.43671,1.800905 18.43128,4.758033 19.30241,6.890754 0.87114,2.13272 -9.1932,16.142335 -8.95821,18.434091 0.23498,2.291757 12.93299,13.967413 12.51279,16.232542 -0.42019,2.265128 -16.46102,8.609574 -17.50235,10.664564 -1.04133,2.05499 3.32857,18.74224 1.75046,20.42061 -1.57811,1.67838 -18.50258,-1.65666 -20.48962,-0.49088 -1.98704,1.16578 -7.33264,17.56654 -9.56763,18.12528 z"
       inkscape:randomized="0"
       inkscape:rounded="0.11240383"
       inkscape:flatsided="false"
       sodipodi:arg2="1.611417"
       sodipodi:arg1="1.3258177"
       sodipodi:r2="48.549568"
       sodipodi:r1="61.846584"
       sodipodi:cy="82.362183"
       sodipodi:cx="135"
       sodipodi:sides="11"
       id="path3832"
       style="fill:#ffaa00;fill-opacity:1;stroke:#61ff64;stroke-width:0;stroke-linejoin:round;stroke-miterlimit:4;stroke-opacity:1;stroke-dasharray:none"
       sodipodi:type="star" />
    <path
       style="fill:#969696;fill-opacity:1;stroke:#000000;stroke-width:1px;stroke-linecap:butt;stroke-linejoin:miter;stroke-opacity:1"
       d="m 1164.8388,522.72614 c 10.5928,0.14482 14.747,-5.05025 18.3328,-22.67588 4.4577,-21.91183 33.8812,-29.40874 37.8284,-38.68808 l 20,0 c 0.9592,8.68767 -23.7947,20.65721 -37.5365,32.60535 -15.6852,13.6379 -7.0995,35.29195 2.5365,42.39465 -15,-5 -26.1612,-3.63604 -41.1612,-13.63604 z"
       id="path3834"
       inkscape:connector-curvature="0"
       sodipodi:nodetypes="csccscc" />
    <path
       sodipodi:type="arc"
       style="fill:#ffffff;fill-opacity:0;stroke:#000000;stroke-width:0.95000005;stroke-linejoin:round;stroke-miterlimit:4;stroke-opacity:1;stroke-dasharray:none"
       id="path3859"
       sodipodi:cx="465"
       sodipodi:cy="197.36218"
       sodipodi:rx="95"
       sodipodi:ry="95"
       d="m 560,197.36218 c 0,52.46705 -42.53295,95 -95,95 -52.46705,0 -95,-42.53295 -95,-95 0,-52.46705 42.53295,-95 95,-95 52.46705,0 95,42.53295 95,95 z"
       transform="matrix(1.0526315,0,0,1.0526316,726.52633,468.61252)" />
    <path
       sodipodi:type="star"
       style="fill:#ffaa00;fill-opacity:1;stroke:#61ff64;stroke-width:0;stroke-linejoin:round;stroke-miterlimit:4;stroke-opacity:1;stroke-dasharray:none"
       id="path3863"
       sodipodi:sides="11"
       sodipodi:cx="135"
       sodipodi:cy="82.362183"
       sodipodi:r1="61.846584"
       sodipodi:r2="48.549568"
       sodipodi:arg1="1.3258177"
       sodipodi:arg2="1.611417"
       inkscape:flatsided="false"
       inkscape:rounded="0.11240383"
       inkscape:randomized="0"
       d="m 150,142.36218 c -2.23499,0.55875 -14.6697,-11.39692 -16.97157,-11.49048 -2.30188,-0.0935 -15.66581,10.81358 -17.84808,10.07531 -2.18227,-0.73828 -6.17929,-17.51875 -8.06517,-18.84194 -1.88588,-1.32319 -19.025174,0.6274 -20.461876,-1.17351 -1.436701,-1.8009 4.272995,-18.07848 3.401864,-20.2112 C 89.184036,98.587638 73.710979,90.962369 73.475991,88.670612 73.241003,86.378855 86.844628,75.77218 87.264822,73.507052 87.685015,71.241924 78.790783,56.461773 79.832116,54.40678 c 1.041332,-2.054992 18.219832,-3.62322 19.797942,-5.301593 1.578112,-1.678373 2.086562,-18.920813 4.073592,-20.086596 1.98704,-1.165782 17.28636,6.802339 19.52135,6.243592 2.23499,-0.558747 11.98469,-14.789122 14.28656,-14.695567 2.30187,0.09355 10.86459,15.068202 13.04686,15.80648 2.18227,0.738278 18.07777,-5.961989 19.96365,-4.6388 1.88587,1.32319 0.99338,18.550019 2.43008,20.350923 1.43671,1.800905 18.43128,4.758033 19.30241,6.890754 0.87114,2.13272 -9.1932,16.142335 -8.95821,18.434091 0.23498,2.291757 12.93299,13.967413 12.51279,16.232542 -0.42019,2.265128 -16.46102,8.609574 -17.50235,10.664564 -1.04133,2.05499 3.32857,18.74224 1.75046,20.42061 -1.57811,1.67838 -18.50258,-1.65666 -20.48962,-0.49088 -1.98704,1.16578 -7.33264,17.56654 -9.56763,18.12528 z"
       transform="matrix(0.44401023,0,0,0.44401023,1081.2868,565.70541)" />
    <path
       style="fill:#934911;fill-opacity:1;stroke:none"
       d="m 1271,701.36218 10,0 c 1.0813,-17.62452 0.917,-41.18562 -1.3276,-52.6788 -1.6524,-8.46103 -4.4322,-5.96087 -8.6724,-12.3212 2.8944,21.66667 2.4769,43.33334 0,65 z"
       id="path3885"
       inkscape:connector-curvature="0"
       sodipodi:nodetypes="ccscc" />
    <path
       sodipodi:type="arc"
       style="fill:#113d00;fill-opacity:0;stroke:none"
       id="path3887"
       sodipodi:cx="477.5"
       sodipodi:cy="639.86218"
       sodipodi:rx="22.5"
       sodipodi:ry="12.5"
       d="m 499.99509,639.60098 c 0.25966,6.90205 -9.60123,12.61421 -22.02492,12.75847 -8.15481,0.0947 -15.76326,-2.26989 -19.8854,-6.18007"
       sodipodi:start="6.2622875"
       sodipodi:end="8.8949604"
       sodipodi:open="true"
       transform="translate(756,24)" />
    <path
       style="fill:#934911;fill-opacity:1;stroke:none"
       d="m 1272.8714,651.68635 c -0.9889,-0.11547 -2.6581,-0.58543 -3.8532,0.24055 -0.6455,0.44612 -0.8641,2.31643 -1.4172,2.4515 -1.3559,0.33112 0.9327,-2.38832 -0.2453,-2.35412 -1.0886,0.0316 -5.3018,2.79406 -6.2072,3.57307 -0.302,0.25985 1.1088,2.31542 2.588,2.50056 0.7193,0.09 1.6881,-1.9733 2.0358,-1.61421 0.5404,0.55812 -1.42,2.38967 -1.7089,2.54737 -0.6218,0.33936 -2.5667,-1.54681 -3.6665,-2.50859 -0.8604,-0.75242 -0.7148,0.14939 -1.3913,-0.0745 -0.4935,-0.16332 -0.8081,0.37173 -1.7639,0.51777 -0.1294,0.0198 2.1414,1.53648 1.3543,1.81642 -0.9747,-1.12655 -2.3005,-1.55399 -3.3667,-1.25377 -3.0443,0.85715 -5.8926,2.73687 -9.8725,2.51322 3.5697,-0.62841 13.3567,-4.41573 15.1333,-6.08772 0.4229,-0.39797 -3.0538,0.516 -4.333,-0.31161 -0.4297,-0.27804 -1.0572,-0.58267 -2.6012,-0.4379 -1.1837,0.11098 -3.3469,0.69607 -3.7108,0.4922 -0.5272,-0.29529 2.7488,-0.62282 2.874,-1.2246 0.1526,-0.73347 -1.9576,-1.6534 -1.09,-1.97978 0.2026,-0.0762 0.965,0.99151 2.0184,1.44985 0.2719,0.11826 1.6133,0.80191 1.9506,0.35014 0.4129,-0.5531 0,-1.89541 0.2186,-2.22066 0.3229,-0.47511 0.2665,0.38658 1.0728,2.57084 0.4693,1.27131 7.9468,-0.0788 8.8245,-1.56086 0.2661,-0.44945 -5.3308,-2.32068 -5.2824,-2.37046 0.7612,-0.78194 5.2561,1.92893 6.2855,1.59309 0.1649,-0.0538 1.3721,-0.64639 0.3289,-1.40996 -0.9056,-0.66281 -4.0969,-1.50464 -3.8089,-1.61089 1.6877,-0.62257 4.8669,1.2629 7.3061,2.06662 0.7866,0.25919 1.5228,0.40588 2.1507,0.31969 z"
       id="path3915"
       inkscape:connector-curvature="0"
       sodipodi:nodetypes="csssssssssscscsssssssssssssssscc" />
    <path
       style="fill:url(#linearGradient5093);fill-opacity:1;stroke:#007b86;stroke-width:5;stroke-miterlimit:4;stroke-opacity:1;stroke-dasharray:none"
       d="m 414,236.36218 c -30.63115,-237.15294 240.79822,-176.99983 163.5,-84.5 0,0 7.75,-41.75 -29.5,-35.5 -59.97747,17.21571 -21.14865,100.86738 16.25,120.25 z"
       id="path4375"
       inkscape:connector-curvature="0"
       sodipodi:nodetypes="ccccc" />
    <g
       id="g4473"
       transform="matrix(1.1596341,0,0,1.1596341,-126.24938,-70.097821)">
      <g
         id="g4481"
         transform="translate(41.47412,5.2629839)">
        <path
           style="fill:url(#linearGradient4485);fill-opacity:1;fill-rule:nonzero;stroke:none"
           d="m 430,492.36218 c -10.45152,-10.45152 -29.09561,-23.6339 -30.24483,-49.53668 -3.76236,-29.43419 19.22162,-41.53284 37.88419,-61.81512 11.77378,-12.79561 21.82761,-33.96531 22.36064,-48.6482 33.41627,17.35491 19.03125,78.03125 19.03125,78.03125 5.50975,-22.70757 35,-35 35,-35 0,0 -2.88736,2.44754 -4.93825,6.89249 -4.4525,9.65004 -8.56181,26.25729 -5.00945,34.76557 5.42002,12.98151 16.37369,12.91783 16.16117,25.77639 -3.08666,25.74235 -19.79352,39.0831 -30.24472,49.5343 z"
           id="path4387"
           inkscape:connector-curvature="0"
           sodipodi:nodetypes="ccscccssccc" />
        <path
           sodipodi:nodetypes="ccscccssccc"
           inkscape:connector-curvature="0"
           id="path4393"
           d="m 440.36223,492.36218 c -6.48352,-6.48352 -18.04923,-14.6611 -18.76214,-30.72968 -2.33395,-18.25926 11.92398,-25.76456 23.50115,-38.34651 7.30377,-7.93766 13.54059,-21.07011 13.87125,-30.17852 20.72951,10.76598 11.80588,48.40606 11.80588,48.40606 3.41793,-14.08646 21.71197,-21.71197 21.71197,-21.71197 0,0 -1.79115,1.51831 -3.06341,4.2757 -2.76207,5.98632 -5.31125,16.2885 -3.10757,21.56654 3.36227,8.05298 10.15729,8.01347 10.02545,15.99018 -1.91478,15.96906 -12.27875,24.24488 -18.76206,30.7282 z"
           style="fill:#fab900;fill-opacity:1;stroke:none" />
      </g>
    </g>
    <g
       id="g4852"
       transform="matrix(0.98280103,0,0,0.98280103,1.3190984,504.84897)">
      <g
         clip-path="url(#clipPath4848)"
         id="g4817">
        <path
           sodipodi:type="arc"
           style="fill:#c79800;fill-opacity:0;stroke:none"
           id="path4529"
           sodipodi:cx="465"
           sodipodi:cy="197.36218"
           sodipodi:rx="95"
           sodipodi:ry="95"
           d="m 560,197.36218 c 0,52.46705 -42.53295,95 -95,95 -52.46705,0 -95,-42.53295 -95,-95 0,-52.46705 42.53295,-95 95,-95 52.46705,0 95,42.53295 95,95 z"
           transform="matrix(1.0526315,0,0,1.0526316,-289.47367,-55.38748)" />
        <path
           mask="none"
           sodipodi:type="arc"
           style="fill:#43311e;fill-opacity:1;stroke:#61ff64;stroke-width:0;stroke-linejoin:round;stroke-miterlimit:4;stroke-opacity:1;stroke-dasharray:none"
           id="path4531"
           sodipodi:cx="465"
           sodipodi:cy="197.36218"
           sodipodi:rx="95"
           sodipodi:ry="95"
           d="m 560,197.36218 c 0,52.46705 -42.53295,95 -95,95 -52.46705,0 -95,-42.53295 -95,-95 0,-52.46705 42.53295,-95 95,-95 52.46705,0 95,42.53295 95,95 z"
           transform="matrix(1.018421,0,0,1.0184211,-273.31577,-49.88563)" />
        <path
           sodipodi:nodetypes="ssssss"
           inkscape:connector-curvature="0"
           id="path4533"
           d="m 130.20997,95.051299 c -2.88244,-3.231134 -35.601855,10.184131 -39.713965,11.735791 -4.11211,1.55167 -3.376414,41.05673 3.300183,42.66391 6.676592,1.60718 53.987032,11.81916 56.998802,8.4188 3.01176,-3.40036 -5.30015,-22.79288 -2.04951,-26.67586 3.25065,-3.88299 -15.65307,-32.911518 -18.53551,-36.142641 z"
           inkscape:transform-center-y="2.5379571"
           inkscape:transform-center-x="5.8813184"
           style="fill:#e6c8a0;fill-opacity:1;fill-rule:nonzero;stroke:none" />
        <path
           sodipodi:nodetypes="ssssss"
           inkscape:connector-curvature="0"
           id="path4535"
           d="m 172.11196,191.32324 c -7.48791,1.87484 -10.86445,-19.55278 -8.64721,-26.3078 2.21725,-6.75502 19.06069,-50.3946 25.90457,-49.76822 6.8439,0.62639 32.34145,5.86412 38.91384,8.63014 6.57242,2.76603 12.21338,41.92567 13.14681,47.2805 0.93344,5.35481 -61.83011,18.29055 -69.31801,20.16538 z"
           inkscape:transform-center-y="4.5228831"
           inkscape:transform-center-x="-10.814524"
           style="fill:#e6c8a0;fill-opacity:1;fill-rule:nonzero;stroke:none" />
        <path
           transform="translate(82.25,-507.75)"
           inkscape:transform-center-y="0.37947762"
           inkscape:transform-center-x="-0.0012691349"
           d="m 139.96956,680.54995 c -0.58932,0.0598 -7.1183,-0.66235 -7.92521,-0.5103 -0.8069,0.15204 -0.47158,-0.67495 -0.82949,-1.15425 -0.35791,-0.47929 0.49164,-2.81483 1.0457,-3.42432 0.55406,-0.60949 2.98944,-0.74631 3.41355,-0.37807 0.42411,0.36823 5.43266,0.37557 5.33643,1.15424 -0.0962,0.77867 -0.45167,4.25291 -1.04098,4.3127 z"
           inkscape:randomized="0.5"
           inkscape:rounded="0.15"
           inkscape:flatsided="true"
           sodipodi:arg2="1.5063925"
           sodipodi:arg1="0.98279372"
           sodipodi:r2="3.1868873"
           sodipodi:r1="4.5069389"
           sodipodi:cy="677.86218"
           sodipodi:cx="135.25"
           sodipodi:sides="6"
           id="path4537"
           style="fill:#e6c8a0;fill-opacity:1;fill-rule:nonzero;stroke:none"
           sodipodi:type="star" />
        <path
           sodipodi:nodetypes="sssssssss"
           inkscape:connector-curvature="0"
           id="path4539"
           d="m 128.14142,128.89357 c 1.57723,-1.6312 8.49861,-16.40846 10.96694,-18.57932 2.46836,-2.17087 3.22548,15.26571 6.43342,13.94001 3.20795,-1.32571 22.61115,-2.89993 22.25987,-0.4419 -0.35127,2.45803 -13.99419,32.2246 -15.76174,33.7232 -1.76755,1.49859 -14.4507,-3.2025 -17.47639,-1.45002 -3.02568,1.75246 1.14338,-11.47377 -1.81689,-11.13417 -2.96027,0.3396 -23.11302,8.27312 -23.32053,6.45232 -0.2075,-1.82081 17.13811,-20.87893 18.71532,-22.51012 z"
           inkscape:transform-center-y="-2.4188534"
           inkscape:transform-center-x="3.3209209"
           style="fill:#e6c8a0;fill-opacity:1;fill-rule:nonzero;stroke:none" />
        <path
           sodipodi:nodetypes="ssssssss"
           inkscape:connector-curvature="0"
           id="path4541"
           d="m 193.22172,198.713 c 2.40821,-2.22181 13.36224,-4.51797 25.76466,-8.56127 18.69357,-6.09438 41.12711,-13.46007 46.12533,-9.05494 8.31432,7.32772 26.16761,5.49256 31.34213,15.66294 5.17453,10.17037 -7.58003,49.72469 -12.48467,57.19373 -4.90465,7.46904 -54.65812,23.28923 -58.09735,15.2455 -1.7679,-4.13475 -22.30628,-8.70989 -26.1999,-27.04156 -3.99539,-18.81056 -9.38444,-40.73728 -6.4502,-43.4444 z"
           inkscape:transform-center-y="-19.798315"
           inkscape:transform-center-x="2.0043813"
           style="fill:#e6c8a0;fill-opacity:1;fill-rule:nonzero;stroke:none" />
        <path
           sodipodi:nodetypes="sssssss"
           inkscape:connector-curvature="0"
           id="path4543"
           d="m 263.48307,94.256751 c 1.20557,6.511429 -27.11859,18.765829 -32.41676,21.120189 -2.62358,1.16589 -18.0561,-4.85591 -19.16269,-6.80918 -1.90352,-3.35998 0.52039,-19.09049 0.39815,-21.406554 -0.28515,-5.40307 -9.87088,-29.154267 -3.55263,-30.094881 6.31824,-0.940624 43.96748,15.836253 49.32586,16.566474 5.35837,0.730221 4.20251,14.112522 5.40807,20.623952 z"
           inkscape:transform-center-y="-0.42655941"
           inkscape:transform-center-x="-2.2461582"
           style="fill:#e6c8a0;fill-opacity:1;fill-rule:nonzero;stroke:none" />
        <g
           inkscape:transform-center-x="-14.849242"
           transform="matrix(0.92713462,-0.37472842,0.37472842,0.92713462,-213.4684,-395.08969)"
           id="g4545">
          <g
             id="g4547">
            <path
               id="path4549"
               d="m 180.4949,710.22118 c 1.64064,-0.0786 8.51668,-0.31854 9.60672,1.56828 1.09004,1.88681 -5.82743,15.89078 -7.79416,16.33233 -1.96674,0.44156 -7.40626,1.04524 -7.82839,-0.48936 -0.42212,-1.53461 -3.07718,-13.87057 -2.42724,-15.90328 0.64995,-2.03271 6.80242,-1.42938 8.44307,-1.50797 z"
               inkscape:transform-center-y="1.6644641"
               inkscape:transform-center-x="8.0216008"
               style="fill:#e6c8a0;fill-opacity:1;fill-rule:nonzero;stroke:none"
               transform="matrix(-0.03822049,4.0272903,-4.0272903,-0.03822049,3075.9962,-137.88193)"
               inkscape:connector-curvature="0" />
            <path
               sodipodi:nodetypes="ssssss"
               inkscape:connector-curvature="0"
               id="path4551"
               d="m 139.40443,581.10502 c -1.71056,2.95843 -18.42294,35.12917 -21.99073,35.07897 -1.23448,-0.0174 -17.990742,-6.36341 -21.044952,-9.62973 -5.77279,-6.17371 1.178817,-11.55687 -0.154092,-14.1676 -2.038107,-3.99198 17.342684,-27.99573 20.507894,-27.75811 3.16521,0.23763 24.39245,13.51804 22.68188,16.47647 z"
               inkscape:transform-center-y="-1.0887441"
               inkscape:transform-center-x="-1.0783714"
               style="fill:#e6c8a0;fill-opacity:1;fill-rule:nonzero;stroke:none"
               transform="matrix(0.97147434,-0.23714471,0.23714471,0.97147434,-63.505738,46.318975)" />
            <path
               sodipodi:nodetypes="sssssss"
               inkscape:connector-curvature="0"
               id="path4553"
               d="m 140.9059,602.6171 c 0.96729,3.12872 4.28496,18.6343 -6.98199,24.12561 -5.8258,2.83939 -31.33878,-1.2342 -32.29454,-2.3096 -1.0416,-1.17197 -0.42823,-8.06659 -1.865159,-14.17211 -2.431586,-10.3318 -6.562628,-21.69238 -4.175692,-23.15819 3.79748,-2.33201 15.260071,-1.20454 20.646601,-1.83599 5.38653,-0.63144 23.20334,12.60381 24.67078,17.35028 z"
               inkscape:transform-center-y="0.043950784"
               inkscape:transform-center-x="-5.807414"
               style="fill:#e6c8a0;fill-opacity:1;fill-rule:nonzero;stroke:none"
               transform="translate(49.125,-13.5)" />
          </g>
          <path
             id="path4555"
             d="m 121.34928,653.06081 c -1.54172,0.23452 -7.36633,3.87472 -7.5985,1.64651 -0.23217,-2.22821 -4.69285,-6.82718 -2.66041,-7.80111 2.03245,-0.97393 11.87604,-17.97482 13.94401,-16.65235 2.06797,1.32247 9.54758,13.49727 10.15768,15.56247 0.6101,2.06519 -12.30106,7.00995 -13.84278,7.24448 z"
             inkscape:transform-center-y="-0.63260627"
             inkscape:transform-center-x="-1.1934676"
             style="fill:#e6c8a0;fill-opacity:1;fill-rule:nonzero;stroke:none"
             transform="matrix(0.79256923,0.60978194,-0.60978194,0.79256923,469.5348,-8.3576242)"
             inkscape:connector-curvature="0" />
        </g>
        <path
           inkscape:connector-curvature="0"
           id="path4557"
           d="m 187.3833,85.31815 c 0,0 3.18198,13.08148 1.41421,13.08148 -1.76777,0 -13.08147,2.82843 -13.08147,2.82843 l 1.06066,4.24264 6.71751,0.7071 -2.82843,6.01041"
           style="fill:none;stroke:#43311e;stroke-width:3;stroke-linecap:butt;stroke-linejoin:miter;stroke-miterlimit:4;stroke-opacity:1;stroke-dasharray:none" />
        <path
           sodipodi:nodetypes="sssssss"
           inkscape:connector-curvature="0"
           id="path4559"
           d="m 276.42329,91.54186 c -1.25199,-4.11662 4.64344,-23.38507 7.80644,-20.13988 3.16301,3.24519 33.7269,12.50766 37.20302,16.15094 3.47611,3.64328 -12.91844,17.35312 -14.87758,23.2071 -0.99208,2.96436 -3.76323,10.10722 -16.31081,9.9975 -12.23125,-0.10696 -31.0432,-7.78259 -33.6085,-7.86658 -5.19695,-0.17016 21.03941,-17.23245 19.78743,-21.34908 z"
           inkscape:transform-center-y="-4.7012056"
           inkscape:transform-center-x="1.52855"
           style="fill:#e6c8a0;fill-opacity:1;fill-rule:nonzero;stroke:none" />
        <path
           inkscape:connector-curvature="0"
           id="path4561"
           d="m 217.43534,117.13796 9.54594,-13.08148 20.50609,-8.83883 -5.65685,-14.84924 -20.85965,8.13172 -4.59619,-15.55635"
           style="fill:none;stroke:#43311e;stroke-width:3;stroke-linecap:butt;stroke-linejoin:miter;stroke-miterlimit:4;stroke-opacity:1;stroke-dasharray:none" />
        <path
           inkscape:connector-curvature="0"
           id="path4563"
           d="m 142,134.36218 -14.5,4.5 11,7 -14.5,15"
           style="fill:none;stroke:#43311e;stroke-width:2;stroke-linecap:butt;stroke-linejoin:miter;stroke-miterlimit:4;stroke-opacity:1;stroke-dasharray:none" />
        <path
           sodipodi:nodetypes="cssscsc"
           inkscape:connector-curvature="0"
           id="path4565"
           d="m 109.98116,164.64149 c 4.53779,-0.42869 35.25808,-2.40043 41.0433,7.35442 4.97874,8.39558 4.25607,28.65314 8.61868,29.11404 9.43167,0.99649 26.22935,7.00607 26.64878,15.60378 0.41939,8.59764 -3.86291,62.26151 -11.05894,66.3076 -7.19627,4.04585 -102.834126,-45.58735 -110.466327,-53.18877 -7.632202,-7.60142 36.771407,-64.3935 45.214507,-65.19107 z"
           inkscape:transform-center-y="2.450516"
           inkscape:transform-center-x="17.305685"
           style="fill:#e6c8a0;fill-opacity:1;fill-rule:nonzero;stroke:none" />
        <path
           inkscape:connector-curvature="0"
           id="path4567"
           d="m 214.53949,181.45375 5.5402,18.00568 29.77864,10.3879 10.3879,5.88647 -46.39927,14.54306 32.895,32.20247"
           style="fill:none;stroke:#43311e;stroke-width:2.93814063;stroke-linecap:butt;stroke-linejoin:miter;stroke-miterlimit:4;stroke-opacity:1;stroke-dasharray:none" />
        <path
           inkscape:connector-curvature="0"
           id="path4569"
           d="m 172,121.36218 12,11.5 21.5,-7 7,17.5 21.5,4.5 9,1.5"
           style="fill:none;stroke:#43311e;stroke-width:2;stroke-linecap:butt;stroke-linejoin:miter;stroke-miterlimit:4;stroke-opacity:1;stroke-dasharray:none" />
        <g
           transform="matrix(-1.2870206,-0.03473065,-0.03473065,1.2870206,627.88421,-638.51701)"
           id="g4571">
          <path
             sodipodi:nodetypes="sssss"
             inkscape:connector-curvature="0"
             id="path4573"
             d="m 211.23952,685.53523 c -1.93839,0.83984 -15.94014,-1.56951 -17.21743,-2.74464 -1.27729,-1.17514 7.45784,-13.19655 9.04015,-14.08991 1.58231,-0.89336 8.3166,2.63175 9.43977,4.2346 1.12317,1.60285 0.67591,11.7601 -1.26249,12.59995 z"
             inkscape:transform-center-x="22.285908"
             style="fill:#e6c8a0;fill-opacity:1;fill-rule:nonzero;stroke:none"
             transform="matrix(-2.4361638,1.0798505,-1.4054175,-1.8472791,1708.5589,1649.0937)" />
          <path
             sodipodi:nodetypes="ssssss"
             inkscape:connector-curvature="0"
             id="path4575"
             d="m 272.30699,675.99805 c -1.39719,-2.08872 -10.71773,-25.17808 -9.60711,-27.33747 1.11062,-2.15938 8.50794,5.94928 11.82708,6.80171 3.31914,0.85242 20.51629,-5.03326 19.76412,-2.06924 -0.75217,2.96402 -6.9173,28.98024 -7.92566,31.52284 -1.00836,2.5426 -12.66125,-6.82911 -14.05843,-8.91784 z"
             inkscape:transform-center-y="1.3334884"
             inkscape:transform-center-x="-8.5194595"
             style="fill:#e6c8a0;fill-opacity:1;fill-rule:nonzero;stroke:none"
             transform="matrix(-1.4082179,1.019668,-0.76134653,-1.1129856,1136.9167,1087.1784)" />
        </g>
        <path
           inkscape:connector-curvature="0"
           id="path4577"
           d="m 270,176.86218 c 0,0 -12.5,-18.5 -8.5,-19.5 4,-1 17,-5 17,-5 l 5,8 30.5,-16.5"
           style="fill:none;stroke:#43311e;stroke-width:2;stroke-linecap:butt;stroke-linejoin:miter;stroke-miterlimit:4;stroke-opacity:1;stroke-dasharray:none" />
        <path
           inkscape:connector-curvature="0"
           id="path4579"
           d="m 104.6518,232.04281 39.59798,-28.63782 -12.37437,-16.26346 44.54773,-16.26346 13.08148,9.54595"
           style="fill:none;stroke:#43311e;stroke-width:3;stroke-linecap:butt;stroke-linejoin:miter;stroke-miterlimit:4;stroke-opacity:1;stroke-dasharray:none" />
        <path
           inkscape:connector-curvature="0"
           id="path4581"
           d="m 299.5,83.36218 -29,25 3,4.5 -5.5,5.5"
           style="fill:none;stroke:#43311e;stroke-width:2;stroke-linecap:butt;stroke-linejoin:miter;stroke-miterlimit:4;stroke-opacity:1;stroke-dasharray:none" />
        <path
           inkscape:connector-curvature="0"
           id="path4589"
           d="m 175.36248,135.52273 36.416,12.37437"
           style="fill:none;stroke:#43311e;stroke-width:1px;stroke-linecap:butt;stroke-linejoin:miter;stroke-opacity:0" />
        <path
           style="fill:none;stroke:#43311e;stroke-width:4.10478497;stroke-linecap:butt;stroke-linejoin:miter;stroke-miterlimit:4;stroke-opacity:1;stroke-dasharray:none"
           d="m 153.7323,70.87054 c 0,0 4.35378,17.89889 1.93501,17.89889 -2.41877,0 -17.89888,3.87003 -17.89888,3.87003 l 1.45126,5.80505 9.19131,0.96749 -3.87003,8.22382"
           id="path4591"
           inkscape:connector-curvature="0" />
      </g>
      <path
         style="fill:#43311e;fill-opacity:0;stroke:#43311e;stroke-width:10;stroke-linejoin:round;stroke-miterlimit:4;stroke-opacity:1"
         mask="none"
         d="m 296.99999,151.11218 c 0,53.43355 -43.31645,96.75 -96.74999,96.75 -53.43355,0 -96.75,-43.31645 -96.75,-96.75 0,-53.433552 43.31645,-96.750006 96.75,-96.750006 53.43354,0 96.74999,43.316454 96.74999,96.750006 z"
         id="path4587"
         inkscape:connector-curvature="0" />
    </g>
    <g
       id="g5043"
       transform="translate(0,260)">
      <g
         id="g4909">
        <path
           inkscape:connector-curvature="0"
           id="path3778"
           transform="translate(97.717097,53.653341)"
           d="m 98.25,7.34375 c -9.025977,31.341778 -48.500528,62.807664 -59.9375,104.75 -0.0301,0.0952 -0.06408,0.18584 -0.09375,0.28125 -1.739388,5.59231 -2.718283,11.52936 -2.875,17.65625 -0.0144,0.56283 -0.0625,1.1212 -0.0625,1.6875 0,35.89851 29.101493,65 65,65 35.89851,0 65,-29.10149 65,-65 0,-0.57678 -0.0476,-1.14558 -0.0625,-1.71875 0.006,-0.0119 0.0251,-0.0193 0.0312,-0.0312 -0.007,-0.0944 -0.0241,-0.18698 -0.0312,-0.28125 -0.30938,-10.04968 -2.87861,-19.53693 -7.25,-27.9375 C 141.97801,65.003308 105.28203,36.034684 98.25,7.34375 z"
           style="fill:url(#linearGradient5049);fill-opacity:1;stroke:#61ff64;stroke-width:0;stroke-linejoin:round;stroke-miterlimit:4;stroke-opacity:1" />
      </g>
      <path
         sodipodi:nodetypes="sscs"
         inkscape:connector-curvature="0"
         id="path4889"
         d="m 167.91044,220.94036 c -6.8517,1.40849 -17.47542,-12.5776 -17.47542,-32.6347 0,-12.12552 2.5313,-24.74132 8.98784,-32.22941 -2.21075,17.51336 33.27475,59.76868 8.48758,64.86411 z"
         style="fill:#ffffff;fill-opacity:1;stroke:#a5bba6;stroke-width:0;stroke-linejoin:round;stroke-miterlimit:4;stroke-opacity:1" />
      <path
         sodipodi:nodetypes="csscc"
         inkscape:connector-curvature="0"
         id="path4917"
         d="M 35.219414,46.464816 C 34.356272,54.228541 32.329241,62.993536 29.037413,71.233318 23.671492,84.664763 15.015774,96.76353 3.0896813,101.32256 -14.504094,108.04819 -32.520845,97.226789 -42.876639,73.039732 -7.0708809,95.481008 13.30907,85.97931 35.219414,46.464816 z"
         inkscape:transform-center-y="-0.46532901"
         inkscape:transform-center-x="4.5195326"
         style="fill:#0053c7;fill-opacity:1;fill-rule:nonzero;stroke:none"
         transform="matrix(1.4603798,-0.33559703,0.20527277,0.89326227,201.97658,153.9518)" />
    </g>
    <path
       sodipodi:type="star"
       style="fill:#ffaa00;fill-opacity:1;stroke:#d45123;stroke-width:3.06905985;stroke-linejoin:round;stroke-miterlimit:4;stroke-opacity:1;stroke-dasharray:none"
       id="path2997"
       sodipodi:sides="11"
       sodipodi:cx="135"
       sodipodi:cy="82.362183"
       sodipodi:r1="61.846584"
       sodipodi:r2="48.549568"
       sodipodi:arg1="1.3258177"
       sodipodi:arg2="1.611417"
       inkscape:flatsided="false"
       inkscape:rounded="0.11240383"
       inkscape:randomized="0"
       d="m 150,142.36218 c -2.23499,0.55875 -14.6697,-11.39692 -16.97157,-11.49048 -2.30188,-0.0935 -15.66581,10.81358 -17.84808,10.07531 -2.18227,-0.73828 -6.17929,-17.51875 -8.06517,-18.84194 -1.88588,-1.32319 -19.025174,0.6274 -20.461876,-1.17351 -1.436701,-1.8009 4.272995,-18.07848 3.401864,-20.2112 C 89.184036,98.587638 73.710979,90.962369 73.475991,88.670612 73.241003,86.378855 86.844628,75.77218 87.264822,73.507052 87.685015,71.241924 78.790783,56.461773 79.832116,54.40678 c 1.041332,-2.054992 18.219832,-3.62322 19.797942,-5.301593 1.578112,-1.678373 2.086562,-18.920813 4.073592,-20.086596 1.98704,-1.165782 17.28636,6.802339 19.52135,6.243592 2.23499,-0.558747 11.98469,-14.789122 14.28656,-14.695567 2.30187,0.09355 10.86459,15.068202 13.04686,15.80648 2.18227,0.738278 18.07777,-5.961989 19.96365,-4.6388 1.88587,1.32319 0.99338,18.550019 2.43008,20.350923 1.43671,1.800905 18.43128,4.758033 19.30241,6.890754 0.87114,2.13272 -9.1932,16.142335 -8.95821,18.434091 0.23498,2.291757 12.93299,13.967413 12.51279,16.232542 -0.42019,2.265128 -16.46102,8.609574 -17.50235,10.664564 -1.04133,2.05499 3.32857,18.74224 1.75046,20.42061 -1.57811,1.67838 -18.50258,-1.65666 -20.48962,-0.49088 -1.98704,1.16578 -7.33264,17.56654 -9.56763,18.12528 z"
       transform="matrix(1.5947002,0,0,1.5947002,-16.7974,23.76648)" />
    <path
       sodipodi:type="star"
       style="fill:#ee0000;fill-opacity:0.59111113;fill-rule:nonzero;stroke:none"
       id="path5109"
       sodipodi:sides="11"
       sodipodi:cx="458.91229"
       sodipodi:cy="601.63666"
       sodipodi:r1="75.316002"
       sodipodi:r2="22.594801"
       sodipodi:arg1="-1.3531457"
       sodipodi:arg2="-1.0675464"
       inkscape:flatsided="false"
       inkscape:rounded="0.812"
       inkscape:randomized="0"
       d="m 475.17575,528.09755 c 42.82372,9.47063 -43.78742,32.59377 -5.36655,53.74561 38.42088,21.15185 11.63763,-64.3983 42.54303,-33.27885 30.90539,31.11946 -54.45785,3.74636 -33.5717,42.31232 20.88615,38.56595 44.60654,-47.88353 53.78137,-4.99546 9.17483,42.88807 -47.83829,-26.2905 -51.11807,17.44515 -3.27979,43.73565 63.4132,-16.16607 47.94452,24.87396 -15.46869,41.04003 -26.03042,-47.98031 -52.43482,-12.96072 -26.40441,35.01959 62.08661,20.684 26.88561,46.84607 -35.201,26.16207 4.04194,-54.43671 -37.10388,-39.25166 -41.14582,15.18505 41.04797,50.96705 -2.70928,53.94489 -43.75725,2.97783 32.831,-43.60984 -9.99272,-53.08047 -42.82373,-9.47063 6.97688,65.06842 -31.444,43.91658 -38.42088,-21.15184 51.19645,-18.93715 20.29105,-50.05661 -30.9054,-31.11945 -29.30931,58.51102 -50.19546,19.94507 -20.88615,-38.56595 53.30739,11.74795 44.13256,-31.14013 -9.17483,-42.88807 -56.29001,33.3768 -53.01023,-10.35885 3.27978,-43.73565 38.49361,38.70315 53.9623,-2.33688 15.46868,-41.04003 -65.39903,-2.35434 -38.99463,-37.37392 26.40441,-35.01959 11.45839,53.37038 46.65939,27.20832 35.201,-26.16207 -53.74432,-37.33798 -12.5985,-52.52303 41.14582,-15.18506 -19.2148,51.09289 24.54245,48.11506 43.75724,-2.97784 -25.02616,-60.46708 17.79756,-50.99645 z"
       transform="matrix(0.92301842,-0.15970326,0.15970326,0.92301842,-321.16712,-329.34116)"
       inkscape:transform-center-y="4.2623351"
       inkscape:transform-center-x="-3.1554513" />
    <path
       sodipodi:type="arc"
       style="fill:#ffaa00;fill-opacity:1;fill-rule:nonzero;stroke:none"
       id="path5121"
       sodipodi:cx="224.85995"
       sodipodi:cy="491.328"
       sodipodi:rx="14.142136"
       sodipodi:ry="14.142136"
       d="m 239.00209,491.328 a 14.142136,14.142136 0 1 1 -28.28427,0 14.142136,14.142136 0 1 1 28.28427,0 z"
       transform="translate(-26.2203,-338.92189)" />
  </g>
</svg>
