<?xml version="1.0" encoding="UTF-8" standalone="no"?>
<!-- Generator: Adobe Illustrator 16.0.0, SVG Export Plug-In . SVG Version: 6.00 Build 0)  -->

<svg
   xmlns:dc="http://purl.org/dc/elements/1.1/"
   xmlns:cc="http://creativecommons.org/ns#"
   xmlns:rdf="http://www.w3.org/1999/02/22-rdf-syntax-ns#"
   xmlns:svg="http://www.w3.org/2000/svg"
   xmlns="http://www.w3.org/2000/svg"
   xmlns:xlink="http://www.w3.org/1999/xlink"
   xmlns:sodipodi="http://sodipodi.sourceforge.net/DTD/sodipodi-0.dtd"
   xmlns:inkscape="http://www.inkscape.org/namespaces/inkscape"
   version="1.1"
   id="Layer_1"
   x="0px"
   y="0px"
   width="512px"
   height="512px"
   viewBox="0 0 512 512"
   enable-background="new 0 0 512 512"
   xml:space="preserve"
   inkscape:version="0.48.2 r9819"
   sodipodi:docname="freeformatter-output.svg"><metadata
   id="metadata3046"><rdf:RDF><cc:Work
       rdf:about=""><dc:format>image/svg+xml</dc:format><dc:type
         rdf:resource="http://purl.org/dc/dcmitype/StillImage" /></cc:Work></rdf:RDF></metadata><defs
   id="defs3044"><linearGradient
     inkscape:collect="always"
     id="linearGradient3828"><stop
       style="stop-color:#ff2077;stop-opacity:1;"
       offset="0"
       id="stop3830" /><stop
       style="stop-color:#ff2077;stop-opacity:0;"
       offset="1"
       id="stop3832" /></linearGradient><linearGradient
     inkscape:collect="always"
     xlink:href="#linearGradient3828"
     id="linearGradient3834"
     x1="-248.51807"
     y1="316.40708"
     x2="647.37427"
     y2="316.40708"
     gradientUnits="userSpaceOnUse" /></defs><sodipodi:namedview
   pagecolor="#ffffff"
   bordercolor="#666666"
   borderopacity="1"
   objecttolerance="10"
   gridtolerance="10"
   guidetolerance="10"
   inkscape:pageopacity="0"
   inkscape:pageshadow="2"
   inkscape:window-width="1587"
   inkscape:window-height="896"
   id="namedview3042"
   showgrid="false"
   inkscape:zoom="0.90509668"
   inkscape:cx="116.12438"
   inkscape:cy="105.86957"
   inkscape:window-x="0"
   inkscape:window-y="0"
   inkscape:window-maximized="0"
   inkscape:current-layer="Layer_1" />
<rect
   style="fill:url(#linearGradient3834);fill-opacity:1;stroke:#61ff64;stroke-width:0;stroke-linejoin:round;stroke-miterlimit:4;stroke-opacity:1;stroke-dasharray:none"
   id="rect3826"
   width="895.89233"
   height="836.0639"
   x="-248.51807"
   y="-101.62487" />
<g
   id="g3836"><path
     fill="#FFFFFF"
     id="path3038"
     d="M293.751,455.868c-20.181,20.179-53.165,19.913-73.673-0.595l0,0c-20.508-20.508-20.773-53.493-0.594-73.672  l189.999-190c20.178-20.178,53.164-19.913,73.672,0.595l0,0c20.508,20.509,20.772,53.492,0.595,73.671L293.751,455.868z" /><path
     fill="#FFFFFF"
     id="path3040"
     d="M220.249,455.868c20.18,20.179,53.164,19.913,73.672-0.595l0,0c20.509-20.508,20.774-53.493,0.596-73.672  l-190-190c-20.178-20.178-53.164-19.913-73.671,0.595l0,0c-20.508,20.509-20.772,53.492-0.595,73.671L220.249,455.868z" /></g>
<g
   id="g3840"
   transform="matrix(1,0,0,-1,0,647.46938)"
   style="fill:#000000;fill-opacity:1"><path
     d="m 293.751,455.868 c -20.181,20.179 -53.165,19.913 -73.673,-0.595 l 0,0 C 199.57,434.765 199.305,401.78 219.484,381.601 l 189.999,-190 c 20.178,-20.178 53.164,-19.913 73.672,0.595 l 0,0 c 20.508,20.509 20.772,53.492 0.595,73.671 L 293.751,455.868 z"
     id="path3842"
     inkscape:connector-curvature="0"
     style="fill:#000000;fill-opacity:1" /><path
     d="m 220.249,455.868 c 20.18,20.179 53.164,19.913 73.672,-0.595 l 0,0 c 20.509,-20.508 20.774,-53.493 0.596,-73.672 l -190,-190 C 84.339,171.423 51.353,171.688 30.846,192.196 l 0,0 c -20.508,20.509 -20.772,53.492 -0.595,73.671 l 189.998,190.001 z"
     id="path3844"
     inkscape:connector-curvature="0"
     style="fill:#000000;fill-opacity:1" /></g></svg>